<svg width="28" height="33" viewBox="0 0 28 33" fill="none" xmlns="http://www.w3.org/2000/svg">
<path d="M22.6535 17.4512C22.686 14.9297 24.0401 12.5438 26.1883 11.2231C24.8331 9.28766 22.5632 8.06051 20.2016 7.98662C17.6827 7.72223 15.2408 9.49386 13.9572 9.49386C12.6488 9.49386 10.6726 8.01287 8.54449 8.05665C5.77061 8.14627 3.18466 9.72334 1.83511 12.1485C-1.06589 17.1711 1.09799 24.5527 3.87691 28.6126C5.26726 30.6006 6.89218 32.8213 9.01835 32.7425C11.0989 32.6562 11.876 31.4158 14.3875 31.4158C16.8756 31.4158 17.6046 32.7425 19.774 32.6925C22.0065 32.6562 23.4131 30.6956 24.7547 28.6887C25.7537 27.2722 26.5224 25.7066 27.0323 24.05C24.4087 22.9403 22.6566 20.2999 22.6535 17.4512Z" fill="#F17228"/>
<path d="M18.556 5.31662C19.7733 3.85531 20.373 1.97704 20.2278 0.0806885C18.368 0.276019 16.6501 1.16486 15.4164 2.5701C14.21 3.9431 13.5821 5.78832 13.7008 7.61219C15.5613 7.63134 17.3902 6.7666 18.556 5.31662Z" fill="#F17228"/>
</svg>
