<svg width="136" height="136" viewBox="0 0 136 136" fill="none" xmlns="http://www.w3.org/2000/svg">
<g clip-path="url(#clip0_401_1796)">
<path d="M14.864 88.1771L1.01024 121.797C-1.11484 126.954 0.335657 136 3.28777 136H132.712C135.672 136 137.119 126.914 134.978 121.769L120.983 88.1273C119.881 85.4774 118.415 84 116.891 84H18.9758C17.4425 84.0008 15.9683 85.4973 14.864 88.1771Z" fill="url(#paint0_linear_401_1796)"/>
<path d="M79.7499 93.577L79.7385 93.5688H56.2971C58.73 96.2926 60.9556 98.6833 62.7981 100.618L79.7499 116.542H103.729L79.7499 93.577Z" fill="url(#paint1_linear_401_1796)"/>
<path d="M68.0181 0C44.851 0 26.0696 18.7989 26.0696 41.9873C26.0696 60.0646 51.5604 88.8175 62.7985 100.618C65.6408 103.603 70.3957 103.603 73.238 100.618C84.4789 88.8175 109.97 60.0646 109.97 41.9873C109.969 18.7989 91.188 0 68.0181 0ZM68.0181 57.9593C59.2053 57.9593 52.0611 50.8083 52.0611 41.9875C52.0611 33.1667 59.2055 26.0157 68.0181 26.0157C76.8307 26.0157 83.9752 33.1667 83.9752 41.9875C83.9752 50.8083 76.8307 57.9593 68.0181 57.9593Z" fill="url(#paint2_linear_401_1796)"/>
<circle cx="68" cy="42.3958" r="25" fill="white"/>
<path d="M68.0178 17C54.0121 17 42.658 28.3647 42.658 42.3834C42.658 56.4021 54.0121 67.7668 68.0178 67.7668C82.0235 67.7668 93.3776 56.4021 93.3776 42.3834C93.3776 28.3647 82.0233 17 68.0178 17ZM68.0178 58.3552C59.205 58.3552 52.0608 51.2042 52.0608 42.3834C52.0608 33.5626 59.2052 26.4116 68.0178 26.4116C76.8304 26.4116 83.9748 33.5626 83.9748 42.3834C83.9748 51.2042 76.8304 58.3552 68.0178 58.3552Z" fill="url(#paint3_linear_401_1796)"/>
</g>
<defs>
<linearGradient id="paint0_linear_401_1796" x1="68" y1="84" x2="68" y2="136" gradientUnits="userSpaceOnUse">
<stop stop-color="white"/>
<stop offset="0.71875" stop-color="#F0F0F0"/>
<stop offset="1" stop-color="#E0E0E0"/>
</linearGradient>
<linearGradient id="paint1_linear_401_1796" x1="91.4151" y1="116.221" x2="72.4765" y2="100.828" gradientUnits="userSpaceOnUse">
<stop stop-color="#FEFEFE" stop-opacity="0"/>
<stop offset="1" stop-color="#D7D7D7"/>
</linearGradient>
<linearGradient id="paint2_linear_401_1796" x1="53.4781" y1="29.6747" x2="95.4908" y2="71.6484" gradientUnits="userSpaceOnUse">
<stop stop-color="#FFC851"/>
<stop offset="1" stop-color="#FFAE00"/>
</linearGradient>
<linearGradient id="paint3_linear_401_1796" x1="77.4717" y1="32.9201" x2="50.0449" y2="60.3236" gradientUnits="userSpaceOnUse">
<stop stop-color="#FFCB5B"/>
<stop offset="1" stop-color="#FAAE0B"/>
</linearGradient>
<clipPath id="clip0_401_1796">
<rect width="136" height="136" fill="white"/>
</clipPath>
</defs>
</svg>
