<svg width="167" height="192" viewBox="0 0 167 192" fill="none" xmlns="http://www.w3.org/2000/svg">
<g clip-path="url(#clip0_731_166)" filter="url(#filter0_dd_731_166)">
<rect x="41" y="21" width="85" height="110" rx="16" fill="url(#paint0_linear_731_166)" stroke="url(#paint1_linear_731_166)" stroke-width="2"/>
<path d="M108.911 76.1077C108.911 74.1433 107.315 72.5538 105.342 72.5538H101.774V69C101.774 60.4196 95.6354 53.2415 87.4992 51.5904V47.6769C87.4992 45.7126 85.9031 44.123 83.9306 44.123C81.9582 44.123 80.362 45.7126 80.362 47.6769V51.5904C72.2259 53.2415 66.0876 60.4196 66.0876 69V72.5538H62.519C60.5466 72.5538 58.9504 74.1433 58.9504 76.1077C58.9504 78.072 60.5466 79.6615 62.519 79.6615H105.342C107.315 79.6615 108.911 78.072 108.911 76.1077ZM98.205 93.8769H69.6562C67.6838 93.8769 66.0876 95.4664 66.0876 97.4307C66.0876 99.3951 67.6838 100.985 69.6562 100.985H98.205C100.178 100.985 101.774 99.3951 101.774 97.4307C101.774 95.4664 100.178 93.8769 98.205 93.8769Z" fill="white"/>
</g>
<defs>
<filter id="filter0_dd_731_166" x="0" y="0" width="167" height="192" filterUnits="userSpaceOnUse" color-interpolation-filters="sRGB">
<feFlood flood-opacity="0" result="BackgroundImageFix"/>
<feColorMatrix in="SourceAlpha" type="matrix" values="0 0 0 0 0 0 0 0 0 0 0 0 0 0 0 0 0 0 127 0" result="hardAlpha"/>
<feOffset dy="20"/>
<feGaussianBlur stdDeviation="20"/>
<feColorMatrix type="matrix" values="0 0 0 0 1 0 0 0 0 0.680498 0 0 0 0 0 0 0 0 0.29 0"/>
<feBlend mode="normal" in2="BackgroundImageFix" result="effect1_dropShadow_731_166"/>
<feColorMatrix in="SourceAlpha" type="matrix" values="0 0 0 0 0 0 0 0 0 0 0 0 0 0 0 0 0 0 127 0" result="hardAlpha"/>
<feOffset dy="5"/>
<feGaussianBlur stdDeviation="5"/>
<feColorMatrix type="matrix" values="0 0 0 0 1 0 0 0 0 0.680498 0 0 0 0 0 0 0 0 0.26 0"/>
<feBlend mode="normal" in2="effect1_dropShadow_731_166" result="effect2_dropShadow_731_166"/>
<feBlend mode="normal" in="SourceGraphic" in2="effect2_dropShadow_731_166" result="shape"/>
</filter>
<linearGradient id="paint0_linear_731_166" x1="83.5" y1="-22.8025" x2="83.5" y2="169.452" gradientUnits="userSpaceOnUse">
<stop offset="0.630208" stop-color="#FFAE00"/>
<stop offset="1" stop-color="#FFCD1E"/>
</linearGradient>
<linearGradient id="paint1_linear_731_166" x1="83.5" y1="20" x2="83.5" y2="132" gradientUnits="userSpaceOnUse">
<stop stop-color="#FF9F00"/>
<stop offset="1" stop-color="#FFB800"/>
</linearGradient>
<clipPath id="clip0_731_166">
<rect width="807" height="1012" fill="white" transform="translate(10 20)"/>
</clipPath>
</defs>
</svg>
