<svg width="193" height="192" viewBox="0 0 193 192" fill="none" xmlns="http://www.w3.org/2000/svg">
<g filter="url(#filter0_dd_665_87)">
<path d="M41.5 76C41.5 45.7742 66.2742 21 96.5 21C126.725 21 151.5 45.7742 151.5 76C151.5 90.9858 145.238 104.582 135.462 114.503L96.5 127.663L57.5378 114.503C47.762 104.582 41.5 90.9857 41.5 76ZM72.5312 76C72.5312 89.2179 83.2821 99.9688 96.5 99.9688C109.718 99.9688 120.469 89.2179 120.469 76C120.469 62.7821 109.718 52.0312 96.5 52.0312C83.2821 52.0312 72.5312 62.7821 72.5312 76Z" fill="url(#paint0_linear_665_87)" stroke="url(#paint1_linear_665_87)" stroke-width="2"/>
<path d="M41.5 76C41.5 45.7742 66.2742 21 96.5 21C126.725 21 151.5 45.7742 151.5 76C151.5 90.9858 145.238 104.582 135.462 114.503L96.5 127.663L57.5379 114.503C47.762 104.582 41.5 90.9857 41.5 76ZM72.5312 76C72.5312 89.2179 83.2821 99.9688 96.5 99.9688C109.718 99.9688 120.469 89.2179 120.469 76C120.469 62.7821 109.718 52.0312 96.5 52.0312C83.2821 52.0312 72.5312 62.7821 72.5312 76Z" fill="url(#paint2_linear_665_87)" stroke="url(#paint3_linear_665_87)" stroke-width="2"/>
<path d="M96.5 115.375C86.6563 115.375 86.6563 108.812 76.8125 108.812C66.9688 108.812 66.9688 115.441 56.9936 115.375C67.1 125.481 81.0781 132 96.5 132C111.922 132 125.9 125.481 136.006 115.375C126.031 115.441 126.097 108.812 116.188 108.812C106.344 108.812 106.344 115.375 96.5 115.375ZM66.0074 86.8051C64.7257 85.5234 62.6491 85.5234 61.3675 86.8051C60.0858 88.0867 60.0858 90.1633 61.3675 91.445L67.93 98.0075C69.2118 99.2891 71.2882 99.2891 72.5699 98.0075C73.8515 96.7258 73.8515 94.6492 72.5699 93.3676L66.0074 86.8051ZM96.5 46.4687H109.625C111.439 46.4687 112.906 45.0011 112.906 43.1874C112.906 41.3738 111.439 39.9062 109.625 39.9062H96.5C94.6864 39.9062 93.2188 41.3738 93.2188 43.1874C93.2188 45.0011 94.6864 46.4687 96.5 46.4687ZM125.07 98.0073L131.632 91.4448C132.914 90.1631 132.914 88.0865 131.632 86.8049C130.351 85.5232 128.274 85.5232 126.992 86.8049L120.43 93.3674C119.148 94.649 119.148 96.7256 120.43 98.0073C121.712 99.2891 123.788 99.2891 125.07 98.0073ZM126.993 65.1948C128.275 66.4764 130.351 66.4764 131.633 65.1948C132.914 63.9131 132.914 61.8365 131.633 60.5549L125.07 53.9924C123.788 52.7107 121.712 52.7107 120.43 53.9924C119.149 55.274 119.149 57.3506 120.43 58.6323L126.993 65.1948ZM66.0074 65.1948L72.5699 58.6323C73.8515 57.3506 73.8515 55.274 72.5699 53.9924C71.2882 52.7107 69.2116 52.7107 67.93 53.9924L61.3675 60.5549C60.0858 61.8365 60.0858 63.9131 61.3675 65.1948C62.6493 66.4767 64.7257 66.4767 66.0074 65.1948ZM83.3752 46.3125C85.1874 46.3125 86.6565 44.8434 86.6565 43.0312C86.6565 41.2191 85.1874 39.75 83.3752 39.75C81.5631 39.75 80.094 41.2191 80.094 43.0312C80.094 44.8434 81.5629 46.3125 83.3752 46.3125ZM60.4065 75.8437C60.4065 74.0316 58.9374 72.5625 57.1252 72.5625C55.3131 72.5625 53.844 74.0316 53.844 75.8437C53.844 77.6559 55.3131 79.125 57.1252 79.125C58.9374 79.125 60.4065 77.6559 60.4065 75.8437ZM135.875 72.5625C134.063 72.5625 132.594 74.0316 132.594 75.8437C132.594 77.6559 134.063 79.125 135.875 79.125C137.687 79.125 139.156 77.6559 139.156 75.8437C139.156 74.0316 137.687 72.5625 135.875 72.5625Z" fill="white"/>
</g>
<defs>
<filter id="filter0_dd_665_87" x="0.5" y="0" width="192" height="192" filterUnits="userSpaceOnUse" color-interpolation-filters="sRGB">
<feFlood flood-opacity="0" result="BackgroundImageFix"/>
<feColorMatrix in="SourceAlpha" type="matrix" values="0 0 0 0 0 0 0 0 0 0 0 0 0 0 0 0 0 0 127 0" result="hardAlpha"/>
<feOffset dy="20"/>
<feGaussianBlur stdDeviation="20"/>
<feColorMatrix type="matrix" values="0 0 0 0 1 0 0 0 0 0.680498 0 0 0 0 0 0 0 0 0.29 0"/>
<feBlend mode="normal" in2="BackgroundImageFix" result="effect1_dropShadow_665_87"/>
<feColorMatrix in="SourceAlpha" type="matrix" values="0 0 0 0 0 0 0 0 0 0 0 0 0 0 0 0 0 0 127 0" result="hardAlpha"/>
<feOffset dy="5"/>
<feGaussianBlur stdDeviation="5"/>
<feColorMatrix type="matrix" values="0 0 0 0 1 0 0 0 0 0.680498 0 0 0 0 0 0 0 0 0.26 0"/>
<feBlend mode="normal" in2="effect1_dropShadow_665_87" result="effect2_dropShadow_665_87"/>
<feBlend mode="normal" in="SourceGraphic" in2="effect2_dropShadow_665_87" result="shape"/>
</filter>
<linearGradient id="paint0_linear_665_87" x1="96.5" y1="-21.5486" x2="96.5" y2="165.074" gradientUnits="userSpaceOnUse">
<stop stop-color="#FFAE00"/>
<stop offset="1" stop-color="#FFCD1E"/>
</linearGradient>
<linearGradient id="paint1_linear_665_87" x1="96.5" y1="20" x2="96.5" y2="128.719" gradientUnits="userSpaceOnUse">
<stop stop-color="#FF9F00"/>
<stop offset="1" stop-color="#FFB800"/>
</linearGradient>
<linearGradient id="paint2_linear_665_87" x1="96.5" y1="-21.5486" x2="96.5" y2="165.074" gradientUnits="userSpaceOnUse">
<stop offset="0.630208" stop-color="#FFAE00"/>
<stop offset="1" stop-color="#FFCD1E"/>
</linearGradient>
<linearGradient id="paint3_linear_665_87" x1="96.5" y1="20" x2="96.5" y2="128.719" gradientUnits="userSpaceOnUse">
<stop stop-color="#FF9F00"/>
<stop offset="1" stop-color="#FFB800"/>
</linearGradient>
</defs>
</svg>
